<svg width="120" height="120" viewBox="0 0 120 120" fill="white" xmlns="http://www.w3.org/2000/svg">
<path d="M60 0C26.9168 0 0 26.9154 0 60.0031C0 93.0908 26.9168 120 60 120C93.0832 120 120 93.0846 120 60.0031C120 26.9216 93.0832 0 60 0ZM60 116.982C28.5744 116.982 3.01206 91.4209 3.01206 59.9969C3.01206 28.5729 28.5806 3.01191 60 3.01191C91.4194 3.01191 116.988 28.5791 116.988 59.9969C116.988 91.4147 91.4256 116.982 60 116.982ZM60 12.9197C33.9986 12.9197 12.9203 33.9968 12.9203 59.9969C12.9203 85.997 33.9986 107.074 60 107.074C86.0014 107.074 107.08 85.997 107.08 59.9969C107.08 33.9968 86.0014 12.9197 60 12.9197ZM91.2463 72.9413V91.2416H72.9451L60 104.186L47.0549 91.2416H28.7537V72.9413L15.8087 59.9969L28.7537 47.0525V28.7461H47.0549L60 15.8017L72.9451 28.7461H91.2463V47.0525L104.191 59.9969L91.2463 72.9413ZM76.4395 56.7191C72.6172 57.152 70.5144 63.5716 70.3412 64.1035C70.4278 63.8623 70.9473 62.8295 73.6192 61.4503C76.6746 59.867 82.7791 63.2562 82.7791 63.2562C79.9649 65.7362 74.7882 65.9589 70.5639 65.5074C66.3395 65.0497 66.5684 56.0449 66.3395 49.0625C66.0983 42.0739 64.6944 42.7542 64.6944 42.7542C64.6944 42.7542 64.9294 39.5939 61.8802 54.0164C58.8249 68.4327 42.3791 72.0383 42.3791 72.0383C51.5452 73.399 58.1198 69.113 60.4639 64.6106C62.8141 60.102 64.4531 50.6334 64.4531 50.6334C64.4531 64.1592 65.6345 67.5359 69.1599 69.113C72.6853 70.6963 79.4949 68.4451 84.4305 66.6392C87.5724 65.495 91.2463 65.9651 91.2463 65.9651L94.0604 61.6853C94.0604 61.6853 90.0649 61.9018 87.2508 60.7824C84.4305 59.6506 80.4412 56.2738 76.4457 56.7191H76.4395ZM46.3622 65.0559C47.3085 62.8047 45.6571 50.6272 45.6571 47.4731C45.6571 44.3189 46.8261 42.5192 46.8261 42.5192C45.1871 41.6162 44.0181 37.5591 44.0181 37.5591C43.5419 38.6847 41.9029 41.1648 41.9029 41.1648C41.9029 41.1648 46.5973 63.485 43.5419 66.1753C40.4927 68.878 34.382 69.3357 30.8628 67.0907C27.3312 64.8333 31.0916 57.6158 31.0916 57.6158C28.9764 60.0959 27.3312 63.0274 27.5724 66.1753C27.8074 69.3357 30.1577 72.4836 35.7922 72.7125C41.4267 72.9413 45.4221 67.3071 46.3622 65.0559ZM53.413 54.239C55.9922 56.0388 57.4085 61.6791 57.4085 61.6791C58.8187 49.0563 47.3085 45.4507 47.3085 45.4507C47.3085 45.4507 47.0673 46.1248 47.3085 49.5016C47.5374 52.8908 50.8216 52.4331 53.413 54.239ZM46.9251 75.1801C47.3951 75.2234 47.457 75.2791 47.457 76.0769V76.9427H45.9169V76.0769C45.9169 75.2729 45.9788 75.2234 46.4303 75.1801V74.8894H44.0429V75.1801C44.5872 75.2234 44.6428 75.2791 44.6428 76.0769V78.5384C44.6428 79.3424 44.581 79.398 44.0676 79.4413V79.732H46.455V79.4413C45.9726 79.398 45.9107 79.3424 45.9107 78.5384V77.4066H47.4508V78.5384C47.4508 79.3424 47.3889 79.398 46.8632 79.4413V79.732H49.2939V79.4413C48.7805 79.398 48.7187 79.3424 48.7187 78.5384V76.0769C48.7187 75.2729 48.7805 75.2234 49.3063 75.1801V74.8894H46.9251V75.1801ZM62.0658 79.1321C61.9111 79.3238 61.5895 79.3486 61.3545 79.3486C61.1195 79.3486 60.9525 79.3486 60.835 79.2805C60.6989 79.2125 60.6865 79.027 60.6865 78.6373V76.0831C60.6865 75.2791 60.7484 75.2296 61.2803 75.1863V74.8956H58.862V75.1863C59.3629 75.2296 59.4186 75.2853 59.4186 76.0831V78.5446C59.4186 79.3486 59.3568 79.4042 58.7939 79.4475V79.7382H62.4863C62.5544 79.5094 62.709 78.7301 62.7523 78.4518L62.4307 78.4023C62.3132 78.7981 62.1833 78.996 62.0658 79.1383V79.1321ZM75.2768 79.1321C75.1221 79.3238 74.8005 79.3486 74.5593 79.3486C74.3181 79.3486 74.1573 79.3486 74.0336 79.2805C73.8975 79.2125 73.8852 79.027 73.8852 78.6373V76.0831C73.8852 75.2791 73.947 75.2296 74.4851 75.1863V74.8956H72.0606V75.1863C72.5616 75.2296 72.6234 75.2853 72.6234 76.0831V78.5446C72.6234 79.3486 72.5616 79.4042 71.9988 79.4475V79.7382H75.6973C75.7654 79.5094 75.92 78.7301 75.9633 78.4518L75.6417 78.4023C75.5242 78.7981 75.3943 78.996 75.2768 79.1383V79.1321ZM68.9929 78.7115C68.7084 77.9508 68.3868 77.0726 68.0713 76.1882L67.5642 74.7781L67.0508 74.8833L65.5602 78.7363C65.3129 79.3609 65.2015 79.3918 64.8242 79.4413V79.732H66.5622V79.4413L66.3457 79.4166C66.0056 79.3795 66.0056 79.3053 66.0983 78.9837L66.321 78.2663H67.5456L67.8116 79.027C67.9043 79.2929 67.892 79.3671 67.6198 79.4042L67.3972 79.4351V79.7258H69.7351V79.4351C69.3702 79.3918 69.2341 79.3547 68.9991 78.7054L68.9929 78.7115ZM66.4447 77.8271L66.9086 76.4047H66.9271L67.3972 77.8271H66.4447ZM55.7819 78.7115C55.4974 77.9508 55.1758 77.0726 54.8541 76.1882L54.347 74.7781L53.8336 74.8833L52.3431 78.7363C52.0957 79.3609 51.9843 79.3918 51.607 79.4413V79.732H53.345V79.4413L53.1285 79.4166C52.7884 79.3795 52.7884 79.3053 52.8811 78.9837L53.1038 78.2663H54.3284L54.5944 79.027C54.6933 79.2929 54.6748 79.3671 54.4026 79.4042L54.18 79.4351V79.7258H56.5179V79.4351C56.153 79.3918 56.0169 79.3547 55.7819 78.7054V78.7115ZM53.2337 77.8271L53.6976 76.4047H53.7223L54.1923 77.8271H53.2399H53.2337ZM115.732 59.4836H113.135L112.331 57.0159L111.533 59.4836H108.935L111.038 61.005L110.234 63.4727L112.331 61.9451L114.434 63.4727L113.63 61.005L115.732 59.4836ZM8.47335 59.4836L7.66931 57.0159L6.86527 59.4836H4.2676L6.36429 61.005L5.56025 63.4727L7.66313 61.9451L9.75982 63.4727L8.95578 61.005L11.0587 59.4836H8.46098H8.47335ZM32.5946 13.9463L34.048 16.5067C34.5243 17.3416 34.4933 17.4344 33.9305 17.8179L34.1037 18.1209L37.9569 15.9316C37.8889 15.6532 37.592 14.7503 37.4745 14.4287L37.1096 14.5648C37.2209 15.0472 37.2085 15.3316 37.1652 15.5481C37.1158 15.845 36.7941 16.0552 36.5467 16.1975C36.3055 16.3336 36.12 16.4263 35.9654 16.4387C35.786 16.4511 35.6561 16.2655 35.4273 15.8573L33.912 13.1918C33.4357 12.3507 33.4667 12.2641 33.9986 11.8992L33.8254 11.5961L31.3019 13.031L31.4751 13.334C32.0194 13.0866 32.1122 13.1052 32.5884 13.9463H32.5946ZM100.851 31.7209C100.524 31.2014 100.53 31.1024 101.297 30.5211L103.647 28.7399C104.414 28.1585 104.507 28.1771 104.921 28.6347L105.199 28.4245L103.449 26.1176L103.171 26.3279C103.499 26.8536 103.492 26.9463 102.725 27.5277L100.381 29.3089C99.6145 29.8902 99.5217 29.8717 99.1011 29.414L98.8228 29.6243L100.573 31.9311L100.851 31.7209ZM13.112 45.0116L13.8419 42.3151L13.5079 42.2223C13.279 42.8284 13.2481 42.8346 12.2833 42.6058L9.37017 41.9069C8.46098 41.6843 8.43006 41.641 8.54757 40.973L8.21359 40.8803L7.64457 42.9769L10.6999 45.2219L6.87764 45.8032L6.32718 47.8256L6.66117 47.9184C6.90857 47.2566 7.01989 47.2133 8.08989 47.5658L9.80311 48.1348C10.5762 48.3884 11.0215 48.5677 11.2751 48.6853C11.5782 48.8213 11.6215 49.013 11.5411 49.4336L11.8751 49.5264L12.4503 47.3989L12.1163 47.3061C11.9184 47.8565 11.7947 48.0235 11.4669 47.974C11.1885 47.9369 10.7741 47.8318 10.0381 47.6029L8.13937 47.0216V47.003L12.5925 46.5145L12.7162 46.0506L8.85063 43.2181V43.181L11.8998 43.9788C12.8585 44.2262 12.877 44.2633 12.7595 44.925L13.0997 45.0178L13.112 45.0116ZM87.0467 19.3455C88.1909 20.1247 89.3722 19.9577 89.9969 19.0486C90.5845 18.1828 90.2567 17.4097 89.7866 16.6366L89.6753 16.4511C89.3475 15.913 89.2114 15.5048 89.4588 15.1337C89.7 14.7812 90.1639 14.6699 90.5412 14.9296C91.1226 15.3255 91.0298 16.0243 90.8566 16.6242L91.2153 16.7912C91.4751 16.2346 91.673 15.8326 91.8338 15.5296C91.7596 15.4368 91.6606 15.3255 91.5246 15.1647C91.3514 14.9606 91.1349 14.7688 90.9061 14.6142C89.7495 13.8288 88.6795 14.0947 88.1105 14.9296C87.5724 15.7213 87.9992 16.5748 88.4136 17.2612L88.4878 17.3849C88.797 17.8983 88.9207 18.3374 88.6238 18.7765C88.296 19.2589 87.8322 19.3084 87.4487 19.0486C86.7251 18.5538 86.8488 17.4406 86.9848 16.9087L86.5952 16.785C86.3478 17.3416 86.1684 17.8055 86.0014 18.1828C86.0633 18.2879 86.1746 18.4549 86.3478 18.6775C86.5024 18.8816 86.7622 19.1414 87.0591 19.3455H87.0467ZM70.1804 7.21126C70.5453 8.38015 70.737 8.99861 70.8236 9.43153C70.8731 9.67273 70.8669 9.72221 70.8051 10.0067L70.6381 10.755C70.4278 11.6951 70.3474 11.7446 69.6547 11.6456L69.5805 11.9858L72.5987 12.6537L72.6729 12.3136C71.9678 12.1033 71.9122 12.0291 72.1225 11.0828L72.3142 10.2108C72.3946 9.8459 72.4317 9.79642 72.6482 9.5243C73.0935 8.97387 73.4893 8.54713 73.9346 8.05855C74.3428 7.61326 74.516 7.53904 75.017 7.5947L75.0912 7.25455L72.9883 6.7907L72.9141 7.13086L73.2729 7.24836C73.5821 7.34732 73.5326 7.46482 73.3904 7.66892C72.9822 8.23172 72.4255 8.98005 72.1843 9.27692C71.9926 8.58424 71.8627 8.02144 71.6648 7.24218C71.6215 7.03809 71.6029 6.93295 71.8318 6.9515L72.1967 6.97624L72.2709 6.63609L69.5743 6.04236L69.5 6.38252C69.8835 6.52476 69.9825 6.5928 70.1742 7.21744L70.1804 7.21126ZM52.541 11.5157L52.5039 11.1694H52.2441C51.8297 11.1694 51.8173 11.0828 51.8916 10.687L52.0647 9.80261L53.5182 9.64181L53.9388 10.5077C54.0934 10.8107 54.081 10.9035 53.7594 10.9839L53.4996 11.0519L53.5367 11.3982L56.3261 11.0828L56.2829 10.7365C55.8437 10.7365 55.6767 10.7056 55.3056 9.96959C54.8665 9.10375 54.3655 8.09566 53.8645 7.08138L53.0729 5.47338L52.4729 5.6651L51.2174 10.4582C51.0071 11.2374 50.8772 11.2869 50.4319 11.3982L50.469 11.7446L52.5348 11.5096L52.541 11.5157ZM52.51 7.50193H52.5348L53.2832 9.12849L52.1451 9.25836L52.5039 7.50193H52.51ZM19.6619 30.453L19.9217 30.6819L21.2885 29.111L21.0288 28.8821L20.837 29.0615C20.534 29.3398 20.4659 29.2841 20.2556 28.944L19.7856 28.1771L20.7504 27.0762L21.6473 27.4349C21.9689 27.5586 22.0245 27.6328 21.839 27.9111L21.6905 28.1338L21.9503 28.3626L23.7934 26.2475L23.5337 26.0187C23.2059 26.3093 23.0636 26.4021 22.2905 26.1052C21.3813 25.7651 20.336 25.3569 19.2784 24.9487L17.6085 24.2993L17.2992 24.8436L19.6062 29.2285C19.9773 29.9459 19.9155 30.0696 19.6619 30.453ZM18.561 26.1733L18.5795 26.1547L20.2371 26.8536L19.4887 27.7132L18.5672 26.1733H18.561ZM112.863 45.5806L112.597 45.0116L107.686 44.3622C106.888 44.2509 106.82 44.1334 106.653 43.7005L106.313 43.7809L106.801 45.8032L107.142 45.7228L107.104 45.4631C107.055 45.0549 107.142 45.0301 107.537 45.0549L108.434 45.1106L108.774 46.533L107.964 47.0587C107.68 47.2442 107.587 47.2504 107.469 46.9412L107.37 46.6876L107.036 46.768L107.698 49.4954L108.032 49.415C107.983 48.9759 107.989 48.8089 108.675 48.3513C109.479 47.807 110.413 47.1824 111.353 46.5639L112.85 45.5744L112.863 45.5806ZM109.269 46.2485L109.003 45.1415L110.791 45.2775V45.3023L109.269 46.2485ZM81.1525 106.691C80.602 106.468 80.2309 106.4 80.0206 106.493C79.7299 106.629 79.5134 107.019 79.3526 107.674C79.1547 108.497 78.9877 108.967 78.9011 109.084C78.7898 109.245 78.4125 109.468 77.794 109.727C77.794 109.727 77.794 109.727 77.7879 109.715C76.1921 110.327 75.0294 110.803 73.3904 111.274C73.3904 111.274 72.9389 111.335 72.9451 111.342C72.8523 111.366 73.0935 111.391 73.0564 111.397C72.7781 111.465 72.2895 111.335 72.0977 111.274C71.3432 111.02 71.2256 110.531 70.8051 109.356C70.434 108.33 70.3412 107.878 69.9701 106.852C69.8278 107.087 69.6856 107.322 69.5433 107.557C69.766 108.645 69.8093 109.109 70.1804 110.105C70.6072 111.261 70.836 112.034 71.5225 112.442C71.6833 112.535 71.9307 112.597 72.2585 112.622C72.5307 112.64 72.7409 112.622 72.8708 112.591C74.8686 112.047 76.8354 111.391 78.7774 110.63C79.5444 110.333 79.8722 109.832 79.7485 109.165C79.8103 109.226 80.1258 109.226 80.701 109.158C81.2823 109.084 81.6534 109.004 81.8142 108.93C82.2163 108.744 82.4204 108.466 82.4327 108.107C82.4327 107.823 82.3276 107.538 82.1111 107.26C81.9812 107.093 81.6534 106.907 81.1463 106.697L81.1525 106.691ZM81.2885 108.088C81.1463 108.156 80.8803 108.206 80.4907 108.237C80.0763 108.274 79.8598 108.255 79.8103 108.187C79.767 108.119 79.7856 107.989 79.8722 107.779C79.9526 107.575 80.0515 107.445 80.1567 107.402C80.3608 107.309 80.6144 107.315 80.9051 107.408C81.1648 107.495 81.3627 107.612 81.4679 107.761C81.5545 107.878 81.4926 107.989 81.2823 108.082L81.2885 108.088ZM67.3415 108.948C67.4714 108.596 67.5518 108.28 67.5889 107.989C67.4157 107.94 67.2425 107.86 67.0694 107.748C66.8653 107.625 66.7478 107.501 66.723 107.39C66.7106 107.34 66.7168 107.26 66.7416 107.161C66.7601 107.056 66.7663 106.981 66.7539 106.932C66.7354 106.852 66.6983 106.814 66.6364 106.827C66.5498 106.839 66.4014 107.037 66.1849 107.421C65.9685 107.804 65.8571 108.045 65.8757 108.144C65.8942 108.231 66.0798 108.391 66.4385 108.62C66.7787 109.913 67.1312 111.199 67.4961 112.486C67.1436 112.64 66.5251 112.752 65.7396 112.844C63.9274 112.999 62.1029 113.086 60.2783 113.098C59.6969 113.098 59.2949 113.067 59.1217 113.011C58.9547 112.962 58.7878 112.851 58.6269 112.684C58.4785 112.529 58.3919 112.387 58.3672 112.257C58.2558 111.657 58.1507 111.057 58.0517 110.457C58.0456 110.389 57.9775 110.333 57.86 110.29C57.7301 110.371 57.5817 110.507 57.4147 110.698C57.2601 110.872 57.1178 110.989 56.9817 111.045C56.7715 111.144 56.4684 111.181 56.0726 111.156C55.819 110.952 55.5716 110.748 55.3304 110.544C55.0644 110.853 54.7923 111.162 54.5202 111.465C54.9902 111.886 55.2067 112.337 55.151 112.82C55.1325 112.943 55.1015 113.073 55.0521 113.203C55.0273 113.277 55.0026 113.358 54.9716 113.432C54.9593 113.432 54.9531 113.432 54.9407 113.432C54.6748 113.76 54.1552 114.075 53.345 114.347C52.5224 114.626 51.7926 114.725 51.205 114.65C50.7412 114.595 50.1845 114.471 49.5413 114.279C49.7083 114.527 50.067 114.786 50.6236 115.052C51.1803 115.318 51.6813 115.467 52.1142 115.516C52.8564 115.597 53.5924 115.368 54.2851 114.842C54.6686 114.551 54.984 114.193 55.2562 113.803C55.6705 113.395 55.8994 112.888 55.9551 112.275C55.9551 112.238 55.9612 112.201 55.9674 112.164C56.5797 112.084 57.0993 111.867 57.526 111.515C57.5693 111.849 57.6188 112.183 57.6559 112.517C57.7549 113.024 57.928 113.413 58.1631 113.698C58.4785 114.081 58.9176 114.273 59.4743 114.279C61.7751 114.292 64.082 114.193 66.3767 113.976C67.125 113.908 67.6569 113.574 67.9414 112.993C68.1641 112.541 68.2136 112.047 68.0961 111.521C68.0775 111.434 67.8177 110.581 67.3415 108.96V108.948ZM56.8333 115.058C57.1426 115.269 57.458 115.473 57.7858 115.671C58.126 115.485 58.4599 115.3 58.7939 115.108C58.4723 114.91 58.1569 114.706 57.8476 114.502C57.5137 114.687 57.1797 114.873 56.8395 115.052L56.8333 115.058ZM53.3945 108.429C53.0481 108.614 52.6956 108.8 52.3369 108.985C52.5966 109.245 52.8626 109.505 53.1347 109.758C53.4935 109.573 53.846 109.381 54.1923 109.189C53.9202 108.936 53.6543 108.682 53.3945 108.429ZM54.8727 114.953C55.1758 115.17 55.4788 115.38 55.7942 115.59C56.1468 115.417 56.4931 115.238 56.8333 115.058C56.5241 114.848 56.2148 114.638 55.9118 114.428C55.5716 114.607 55.2252 114.78 54.8789 114.953H54.8727ZM43.7089 112.974C43.8821 113.215 44.0614 113.451 44.2408 113.692C44.5686 113.605 44.8902 113.519 45.2118 113.432C45.0325 113.197 44.8531 112.962 44.6799 112.727C44.3583 112.813 44.0367 112.894 43.7089 112.974ZM50.9947 111.168C51.0751 110.909 51.0751 110.667 50.9947 110.426C50.9391 110.272 50.8216 110.03 50.6484 109.709C50.3453 110.055 50.0423 110.401 49.7268 110.748C50.0917 111.1 50.234 111.44 50.135 111.756C48.6692 111.923 47.3333 111.756 45.3912 111.156C43.647 110.618 41.9214 109.993 40.2206 109.276C40.2206 109.276 40.2206 109.276 40.2206 109.282C40.134 109.245 40.0722 109.22 40.035 109.208C39.7753 109.084 39.5712 108.948 39.466 108.8C39.0578 108.268 39.2496 107.47 40.0103 106.412C40.6721 105.485 40.8082 105.206 41.47 104.279C41.1545 104.359 40.8329 104.433 40.5113 104.501C39.8681 105.404 39.7629 105.658 39.1259 106.561C38.3837 107.606 38.0682 108.472 38.1981 109.165C38.229 109.325 38.3527 109.517 38.5692 109.734C38.7486 109.913 38.9094 110.024 39.0331 110.08C40.9504 110.902 42.9049 111.62 44.8778 112.232C45.7004 112.467 46.2447 112.622 47.0488 112.69C48.5517 112.82 49.5351 112.64 49.9557 112.368C50.5247 111.997 50.8649 111.589 50.9947 111.156V111.168ZM42.2183 112.486C42.3853 112.727 42.5523 112.968 42.7255 113.209C43.0595 113.135 43.3811 113.055 43.7089 112.974C43.5357 112.739 43.3687 112.498 43.2017 112.257C42.8801 112.331 42.5523 112.405 42.2183 112.48V112.486Z" />
</svg>
